<svg width="48" height="48" viewBox="0 0 48 48" fill="none" xmlns="http://www.w3.org/2000/svg">
<rect width="48" height="48" rx="10" fill="url(#paint0_linear_8629_12925)"/>
<path d="M15 16C15 20.5391 16.8398 24.875 19.9648 28.0352C23.125 31.1602 27.4609 33 32 33C32.6719 33 33 32.4375 33 32L33 28.4883C33 27.9453 32.5664 27.5 32.0234 27.4883C31.3945 27.4727 30.6016 27.4375 30.0977 27.3477C29.5586 27.2539 28.9063 27.0664 28.4453 26.9219C28.0859 26.8125 27.6953 26.9102 27.4258 27.1758L25.2109 29.3789C23.6797 28.5742 22.4492 27.6328 21.4102 26.5898C20.3672 25.5508 19.4258 24.3203 18.6211 22.7891L20.8242 20.5703C21.0156 20.3789 21.1211 20.1172 21.1211 19.8516C21.1211 19.7539 21.1055 19.6523 21.0781 19.5547C20.9336 19.0937 20.7461 18.4414 20.6523 17.8984C20.5625 17.3984 20.5273 16.6055 20.5117 15.9766C20.5 15.4336 20.0547 15 19.5117 15L16 15C15.5625 15 15 15.3281 15 16ZM28.4258 29.0039C28.9258 29.1445 29.3711 29.25 29.7539 29.3164C30.0781 29.375 30.4922 29.418 31 29.4492L31 30.9648C29.7109 30.8789 28.4375 30.6211 27.2148 30.207L28.4258 29.0039ZM18.5508 17C18.582 17.5078 18.625 17.9219 18.6836 18.2461C18.75 18.6289 18.8555 19.0703 18.9961 19.5742L17.793 20.7852C17.3789 19.5625 17.1211 18.2891 17.0352 17L18.5508 17Z" fill="white"/>
<defs>
<linearGradient id="paint0_linear_8629_12925" x1="48" y1="-1.4336e-06" x2="-1.00167e-05" y2="48" gradientUnits="userSpaceOnUse">
<stop stop-color="#E45F35"/>
<stop offset="1" stop-color="#FDC24F"/>
</linearGradient>
</defs>
</svg>
