<svg width="48" height="48" viewBox="0 0 48 48" fill="none" xmlns="http://www.w3.org/2000/svg">
<rect width="48" height="48" rx="10" fill="url(#paint0_linear_8295_84268)"/>
<path d="M24 14C18.5469 14 14 17.9727 14 23C14 28.0273 18.5469 32 24 32C24.3477 32 24.6641 31.9297 25 31.8984V35.0938L26.543 34.1055C28.7031 32.7188 33.3867 29.1172 33.9414 23.9453C33.9805 23.6367 34 23.3242 34 23C34 17.9727 29.4531 14 24 14ZM24 16C28.4922 16 32 19.1914 32 23C32 23.2422 31.9844 23.4805 31.957 23.7227V23.7266L31.9531 23.7305C31.6094 26.9297 29.0469 29.4453 27 31.082V29.5742L25.8008 29.8125C25.2188 29.9336 24.6172 30 24 30C19.5078 30 16 26.8086 16 23C16 19.1914 19.5078 16 24 16Z" fill="white"/>
<defs>
<linearGradient id="paint0_linear_8295_84268" x1="4.5" y1="2" x2="45" y2="42.5" gradientUnits="userSpaceOnUse">
<stop stop-color="#38EF7D"/>
<stop offset="1" stop-color="#11998E"/>
</linearGradient>
</defs>
</svg>
