<svg width="48" height="48" viewBox="0 0 48 48" fill="none" xmlns="http://www.w3.org/2000/svg">
<rect width="48" height="48" rx="10" fill="url(#paint0_linear_8295_84460)"/>
<path d="M24 15C21.8008 15 20 16.8008 20 19C20 21.1992 21.8008 23 24 23C26.1992 23 28 21.1992 28 19C28 16.8008 26.1992 15 24 15ZM24 17C25.1172 17 26 17.8828 26 19C26 20.1172 25.1172 21 24 21C22.8828 21 22 20.1172 22 19C22 17.8828 22.8828 17 24 17ZM24 26C20.8594 26 15 27.5469 15 30.5V33H25.9961C25.5664 32.3672 25.2031 31.6992 24.9102 31H17V30.5C17 29.6328 20.707 28 24 28C24.0352 28 24.0703 28.0039 24.1055 28.0039C24.043 27.5234 24 27.043 24 26.5586C24 26.3672 24.0234 26.1797 24.0625 26C24.043 26 24.0195 26 24 26ZM26.5586 26C26.3125 26 26 26.1836 26 26.5586C26 29.0781 27.0234 31.4844 28.7617 33.2422C30.5156 34.9766 32.9219 36 35.4414 36C35.8164 36 36 35.6875 36 35.4414V33.4961C36 33.1914 35.7617 32.9453 35.457 32.9375C35.1055 32.9297 34.668 32.9102 34.3906 32.8594C34.0859 32.8047 33.7266 32.7031 33.4688 32.625C33.2695 32.5625 33.0508 32.6172 32.9062 32.7656L32.1836 33.4297C32.1836 33.4297 31 33 30 32C29 31 28.5195 29.7656 28.5195 29.7656L29.2344 29.0938C29.3828 28.9492 29.4375 28.7305 29.375 28.5312C29.2969 28.2734 29.1953 27.9141 29.1406 27.6094C29.0898 27.332 29.0703 26.8945 29.0625 26.543C29.0547 26.2422 28.8086 26 28.5039 26H26.5586Z" fill="white"/>
<defs>
<linearGradient id="paint0_linear_8295_84460" x1="6" y1="3" x2="103.5" y2="79.5" gradientUnits="userSpaceOnUse">
<stop stop-color="#9942DB"/>
<stop offset="1" stop-color="#21D4FD"/>
</linearGradient>
</defs>
</svg>
