<svg width="48" height="48" viewBox="0 0 48 48" fill="none" xmlns="http://www.w3.org/2000/svg">
<rect width="48" height="48" rx="10" fill="#0088FF"/>
<path d="M29 15C27.8945 15 27 15.8945 27 17V24L29 22H33C34.1055 22 35 21.1055 35 20V17C35 15.8945 34.1055 15 33 15H29ZM21.5 17C19.5781 17 18 18.5781 18 20.5C18 22.4219 19.5781 24 21.5 24C23.4219 24 25 22.4219 25 20.5C25 18.5781 23.4219 17 21.5 17ZM29 17H33V20H29V17ZM21.5 19C22.3398 19 23 19.6602 23 20.5C23 21.3398 22.3398 22 21.5 22C20.6602 22 20 21.3398 20 20.5C20 19.6602 20.6602 19 21.5 19ZM21.5 26C20.0117 26 18.3008 26.4219 16.8516 27.125C16.125 27.4805 15.4648 27.9023 14.9375 28.4375C14.4141 28.9766 14 29.6758 14 30.5V33H29V30.5C29 29.6758 28.5859 28.9766 28.0625 28.4375C27.5352 27.9023 26.875 27.4805 26.1523 27.125C24.6992 26.4219 22.9883 26 21.5 26ZM21.5 28C22.5781 28 24.1172 28.3633 25.2773 28.9258C25.8555 29.207 26.3359 29.5352 26.6289 29.8359C26.9219 30.1367 27 30.3555 27 30.5V31H16V30.5C16 30.3555 16.0781 30.1367 16.3711 29.8359C16.6641 29.5352 17.1445 29.207 17.7266 28.9258C18.8828 28.3633 20.4219 28 21.5 28Z" fill="white"/>
</svg>
