<svg width="665" height="477" viewBox="0 0 665 477" fill="none" xmlns="http://www.w3.org/2000/svg">
<g filter="url(#filter0_d_1939_81761)">
<path fill-rule="evenodd" clip-rule="evenodd" d="M344 8.99999C231.886 9 141 99.8862 141 212C141 324.114 231.886 415 344 415C456.114 415 547 324.114 547 212C547 99.8862 456.114 8.99998 344 8.99999Z" fill="white"/>
<path d="M344 8.49999C231.61 8.5 140.5 99.6101 140.5 212C140.5 324.39 231.61 415.5 344 415.5C456.39 415.5 547.5 324.39 547.5 212C547.5 99.61 456.39 8.49998 344 8.49999Z" stroke="#E6E6E6"/>
</g>
<g filter="url(#filter1_d_1939_81761)">
<path fill-rule="evenodd" clip-rule="evenodd" d="M344 120C262.814 120 197 186.038 197 267.5C197 348.962 262.814 415 344 415C425.186 415 491 348.962 491 267.5C491 186.038 425.186 120 344 120Z" fill="white"/>
<path d="M344 119.5C262.536 119.5 196.5 185.763 196.5 267.5C196.5 349.237 262.536 415.5 344 415.5C425.464 415.5 491.5 349.237 491.5 267.5C491.5 185.763 425.464 119.5 344 119.5Z" stroke="#E6E6E6"/>
</g>
<g opacity="0.3" filter="url(#filter2_f_1939_81761)">
<path d="M426.111 338.001C426.2 369.971 400.354 395.888 368.384 395.888C336.413 395.888 310.424 369.971 310.335 338.001C310.246 306.03 336.092 280.113 368.062 280.113C400.033 280.113 426.022 306.03 426.111 338.001Z" fill="url(#paint0_radial_1939_81761)"/>
</g>
<g opacity="0.3" filter="url(#filter3_f_1939_81761)">
<ellipse cx="321" cy="338" rx="58" ry="59" transform="rotate(180 321 338)" fill="url(#paint1_radial_1939_81761)"/>
</g>
<g filter="url(#filter4_d_1939_81761)">
<path fill-rule="evenodd" clip-rule="evenodd" d="M344.5 253C299.489 253 263 289.265 263 334C263 378.736 299.489 415 344.5 415C389.511 415 426 378.736 426 334C426 289.265 389.511 253 344.5 253Z" fill="white"/>
<path d="M344.5 252.5C299.216 252.5 262.5 288.986 262.5 334C262.5 379.015 299.216 415.5 344.5 415.5C389.784 415.5 426.5 379.015 426.5 334C426.5 288.986 389.784 252.5 344.5 252.5Z" stroke="url(#paint2_linear_1939_81761)"/>
</g>
<path d="M324.312 326V313.995H328.416C329.635 313.995 330.716 314.261 331.659 314.794C332.603 315.322 333.323 316.04 333.821 316.948C334.319 317.856 334.568 318.875 334.568 320.006C334.568 320.856 334.422 321.65 334.129 322.388C333.836 323.121 333.426 323.753 332.898 324.287C332.371 324.82 331.721 325.239 330.947 325.543C330.18 325.848 329.336 326 328.416 326H324.312ZM325.806 324.665H328.416C329.359 324.665 330.186 324.454 330.895 324.032C331.604 323.61 332.134 323.05 332.485 322.353C332.843 321.656 333.021 320.874 333.021 320.006C333.021 319.127 332.846 318.339 332.494 317.642C332.148 316.945 331.621 316.385 330.912 315.963C330.209 315.542 329.377 315.331 328.416 315.331H325.806V324.665ZM336.353 321.641C336.353 320.809 336.534 320.047 336.897 319.356C337.267 318.659 337.779 318.108 338.436 317.704C339.092 317.293 339.827 317.088 340.642 317.088C341.497 317.088 342.244 317.296 342.883 317.712C343.521 318.128 344.002 318.688 344.324 319.391C344.652 320.088 344.816 320.876 344.816 321.755V322.098H337.794C337.847 322.954 338.151 323.668 338.708 324.243C339.271 324.817 340.003 325.104 340.905 325.104C341.415 325.104 341.904 325.007 342.373 324.814C342.848 324.621 343.261 324.345 343.612 323.988L344.254 324.867C343.334 325.769 342.183 326.22 340.8 326.22C339.499 326.22 338.433 325.795 337.601 324.946C336.769 324.096 336.353 322.995 336.353 321.641ZM337.776 321.087H343.48C343.475 320.753 343.413 320.422 343.296 320.094C343.185 319.766 343.018 319.458 342.795 319.171C342.572 318.884 342.273 318.653 341.898 318.477C341.523 318.295 341.099 318.205 340.624 318.205C340.179 318.205 339.774 318.292 339.411 318.468C339.048 318.644 338.752 318.875 338.523 319.163C338.301 319.444 338.125 319.751 337.996 320.085C337.867 320.414 337.794 320.748 337.776 321.087ZM346.495 321.641C346.495 320.809 346.677 320.047 347.04 319.356C347.409 318.659 347.922 318.108 348.578 317.704C349.234 317.293 349.97 317.088 350.784 317.088C351.64 317.088 352.387 317.296 353.025 317.712C353.664 318.128 354.145 318.688 354.467 319.391C354.795 320.088 354.959 320.876 354.959 321.755V322.098H347.937C347.989 322.954 348.294 323.668 348.851 324.243C349.413 324.817 350.146 325.104 351.048 325.104C351.558 325.104 352.047 325.007 352.516 324.814C352.99 324.621 353.403 324.345 353.755 323.988L354.396 324.867C353.477 325.769 352.325 326.22 350.942 326.22C349.642 326.22 348.575 325.795 347.743 324.946C346.911 324.096 346.495 322.995 346.495 321.641ZM347.919 321.087H353.623C353.617 320.753 353.556 320.422 353.438 320.094C353.327 319.766 353.16 319.458 352.938 319.171C352.715 318.884 352.416 318.653 352.041 318.477C351.666 318.295 351.241 318.205 350.767 318.205C350.321 318.205 349.917 318.292 349.554 318.468C349.19 318.644 348.895 318.875 348.666 319.163C348.443 319.444 348.268 319.751 348.139 320.085C348.01 320.414 347.937 320.748 347.919 321.087ZM357.147 329.314V317.308H358.492V318.6C358.82 318.143 359.242 317.777 359.758 317.501C360.279 317.226 360.836 317.088 361.428 317.088C362.582 317.088 363.514 317.499 364.223 318.319C364.938 319.133 365.295 320.241 365.295 321.641C365.295 323.03 364.938 324.14 364.223 324.972C363.514 325.804 362.582 326.22 361.428 326.22C360.842 326.22 360.297 326.085 359.793 325.816C359.295 325.546 358.861 325.168 358.492 324.682V329.314H357.147ZM358.492 323.61C358.732 324.002 359.096 324.333 359.582 324.603C360.068 324.873 360.569 325.007 361.085 325.007C361.94 325.007 362.62 324.694 363.124 324.067C363.628 323.434 363.88 322.625 363.88 321.641C363.88 320.657 363.628 319.854 363.124 319.233C362.62 318.606 361.94 318.292 361.085 318.292C360.569 318.292 360.068 318.427 359.582 318.697C359.096 318.966 358.732 319.294 358.492 319.681V323.61ZM311.339 354V341.995H312.833V352.665H318.414V354H311.339ZM319.855 349.641C319.855 348.809 320.037 348.047 320.4 347.356C320.77 346.659 321.282 346.108 321.938 345.704C322.595 345.293 323.33 345.088 324.145 345.088C325 345.088 325.747 345.296 326.386 345.712C327.024 346.128 327.505 346.688 327.827 347.391C328.155 348.088 328.319 348.876 328.319 349.755V350.098H321.297C321.35 350.954 321.654 351.668 322.211 352.243C322.773 352.817 323.506 353.104 324.408 353.104C324.918 353.104 325.407 353.007 325.876 352.814C326.351 352.621 326.764 352.345 327.115 351.988L327.757 352.867C326.837 353.769 325.686 354.22 324.303 354.22C323.002 354.22 321.936 353.795 321.104 352.946C320.271 352.096 319.855 350.995 319.855 349.641ZM321.279 349.087H326.983C326.978 348.753 326.916 348.422 326.799 348.094C326.688 347.766 326.521 347.458 326.298 347.171C326.075 346.884 325.776 346.653 325.401 346.477C325.026 346.295 324.602 346.205 324.127 346.205C323.682 346.205 323.277 346.292 322.914 346.468C322.551 346.644 322.255 346.875 322.026 347.163C321.804 347.444 321.628 347.751 321.499 348.085C321.37 348.414 321.297 348.748 321.279 349.087ZM330.033 351.337C330.033 350.869 330.121 350.447 330.297 350.072C330.473 349.691 330.704 349.389 330.991 349.167C331.284 348.938 331.606 348.765 331.958 348.648C332.31 348.531 332.676 348.472 333.057 348.472C334.287 348.472 335.248 348.862 335.939 349.641V348.077C335.939 347.514 335.734 347.072 335.324 346.75C334.914 346.421 334.387 346.257 333.742 346.257C332.711 346.257 331.823 346.662 331.079 347.47L330.446 346.53C331.366 345.569 332.526 345.088 333.927 345.088C334.407 345.088 334.844 345.144 335.236 345.255C335.635 345.367 335.989 345.537 336.3 345.765C336.61 345.988 336.854 346.292 337.029 346.679C337.205 347.066 337.293 347.514 337.293 348.024V354H335.939V353.007C335.219 353.816 334.258 354.22 333.057 354.22C332.688 354.22 332.324 354.156 331.967 354.027C331.615 353.904 331.293 353.725 331 353.491C330.707 353.256 330.473 352.955 330.297 352.585C330.121 352.21 330.033 351.794 330.033 351.337ZM331.404 351.337C331.404 351.894 331.604 352.351 332.002 352.708C332.406 353.066 332.928 353.245 333.566 353.245C334.047 353.245 334.498 353.154 334.92 352.972C335.348 352.785 335.688 352.515 335.939 352.164V350.511C335.688 350.171 335.348 349.911 334.92 349.729C334.498 349.542 334.047 349.448 333.566 349.448C332.934 349.448 332.415 349.626 332.011 349.984C331.606 350.335 331.404 350.787 331.404 351.337ZM340.018 354V345.308H341.362V346.697C341.737 346.216 342.174 345.833 342.672 345.545C343.17 345.252 343.7 345.106 344.263 345.106V346.495C344.052 346.471 343.879 346.459 343.744 346.459C343.328 346.459 342.877 346.603 342.391 346.89C341.904 347.171 341.562 347.491 341.362 347.848V354H340.018ZM345.959 354V345.308H347.304V346.565C347.644 346.161 348.095 345.815 348.657 345.528C349.22 345.235 349.809 345.088 350.424 345.088C352.258 345.088 353.175 346.026 353.175 347.901V354H351.839V348.314C351.839 347.582 351.669 347.063 351.329 346.758C350.989 346.448 350.506 346.292 349.879 346.292C349.375 346.292 348.889 346.424 348.42 346.688C347.957 346.952 347.585 347.271 347.304 347.646V354H345.959ZM355.917 343.805C355.741 343.629 355.653 343.416 355.653 343.164C355.653 342.912 355.741 342.698 355.917 342.522C356.099 342.34 356.315 342.25 356.567 342.25C356.819 342.25 357.033 342.34 357.209 342.522C357.385 342.698 357.473 342.912 357.473 343.164C357.473 343.416 357.385 343.629 357.209 343.805C357.033 343.981 356.819 344.069 356.567 344.069C356.315 344.069 356.099 343.981 355.917 343.805ZM355.891 354V345.308H357.235V354H355.891ZM359.934 354V345.308H361.278V346.565C361.618 346.161 362.069 345.815 362.632 345.528C363.194 345.235 363.783 345.088 364.398 345.088C366.232 345.088 367.149 346.026 367.149 347.901V354H365.813V348.314C365.813 347.582 365.644 347.063 365.304 346.758C364.964 346.448 364.48 346.292 363.854 346.292C363.35 346.292 362.863 346.424 362.395 346.688C361.932 346.952 361.56 347.271 361.278 347.646V354H359.934ZM369.355 349.606C369.355 348.229 369.713 347.133 370.428 346.319C371.143 345.499 372.077 345.088 373.231 345.088C373.812 345.088 374.354 345.223 374.857 345.493C375.367 345.762 375.801 346.137 376.158 346.618V345.308H377.512V353.877C377.512 354.54 377.397 355.114 377.169 355.6C376.94 356.086 376.624 356.464 376.22 356.734C375.821 357.009 375.385 357.208 374.91 357.332C374.436 357.46 373.917 357.525 373.354 357.525C372.593 357.525 371.942 357.431 371.403 357.244C370.87 357.056 370.352 356.713 369.848 356.215L370.524 355.24C370.882 355.656 371.283 355.955 371.729 356.136C372.18 356.318 372.722 356.409 373.354 356.409C374.151 356.409 374.816 356.201 375.35 355.785C375.889 355.369 376.158 354.733 376.158 353.877V352.559C375.818 353.022 375.391 353.397 374.875 353.684C374.365 353.965 373.817 354.106 373.231 354.106C372.077 354.106 371.143 353.702 370.428 352.893C369.713 352.084 369.355 350.989 369.355 349.606ZM370.762 349.606C370.762 350.579 371.011 351.373 371.509 351.988C372.013 352.597 372.698 352.902 373.565 352.902C374.081 352.902 374.579 352.767 375.06 352.498C375.54 352.222 375.906 351.888 376.158 351.496V347.681C375.906 347.294 375.537 346.966 375.051 346.697C374.57 346.427 374.075 346.292 373.565 346.292C372.698 346.292 372.013 346.6 371.509 347.215C371.011 347.825 370.762 348.622 370.762 349.606Z" fill="black"/>
<path d="M324.312 326V313.995H328.416C329.635 313.995 330.716 314.261 331.659 314.794C332.603 315.322 333.323 316.04 333.821 316.948C334.319 317.856 334.568 318.875 334.568 320.006C334.568 320.856 334.422 321.65 334.129 322.388C333.836 323.121 333.426 323.753 332.898 324.287C332.371 324.82 331.721 325.239 330.947 325.543C330.18 325.848 329.336 326 328.416 326H324.312ZM325.806 324.665H328.416C329.359 324.665 330.186 324.454 330.895 324.032C331.604 323.61 332.134 323.05 332.485 322.353C332.843 321.656 333.021 320.874 333.021 320.006C333.021 319.127 332.846 318.339 332.494 317.642C332.148 316.945 331.621 316.385 330.912 315.963C330.209 315.542 329.377 315.331 328.416 315.331H325.806V324.665ZM336.353 321.641C336.353 320.809 336.534 320.047 336.897 319.356C337.267 318.659 337.779 318.108 338.436 317.704C339.092 317.293 339.827 317.088 340.642 317.088C341.497 317.088 342.244 317.296 342.883 317.712C343.521 318.128 344.002 318.688 344.324 319.391C344.652 320.088 344.816 320.876 344.816 321.755V322.098H337.794C337.847 322.954 338.151 323.668 338.708 324.243C339.271 324.817 340.003 325.104 340.905 325.104C341.415 325.104 341.904 325.007 342.373 324.814C342.848 324.621 343.261 324.345 343.612 323.988L344.254 324.867C343.334 325.769 342.183 326.22 340.8 326.22C339.499 326.22 338.433 325.795 337.601 324.946C336.769 324.096 336.353 322.995 336.353 321.641ZM337.776 321.087H343.48C343.475 320.753 343.413 320.422 343.296 320.094C343.185 319.766 343.018 319.458 342.795 319.171C342.572 318.884 342.273 318.653 341.898 318.477C341.523 318.295 341.099 318.205 340.624 318.205C340.179 318.205 339.774 318.292 339.411 318.468C339.048 318.644 338.752 318.875 338.523 319.163C338.301 319.444 338.125 319.751 337.996 320.085C337.867 320.414 337.794 320.748 337.776 321.087ZM346.495 321.641C346.495 320.809 346.677 320.047 347.04 319.356C347.409 318.659 347.922 318.108 348.578 317.704C349.234 317.293 349.97 317.088 350.784 317.088C351.64 317.088 352.387 317.296 353.025 317.712C353.664 318.128 354.145 318.688 354.467 319.391C354.795 320.088 354.959 320.876 354.959 321.755V322.098H347.937C347.989 322.954 348.294 323.668 348.851 324.243C349.413 324.817 350.146 325.104 351.048 325.104C351.558 325.104 352.047 325.007 352.516 324.814C352.99 324.621 353.403 324.345 353.755 323.988L354.396 324.867C353.477 325.769 352.325 326.22 350.942 326.22C349.642 326.22 348.575 325.795 347.743 324.946C346.911 324.096 346.495 322.995 346.495 321.641ZM347.919 321.087H353.623C353.617 320.753 353.556 320.422 353.438 320.094C353.327 319.766 353.16 319.458 352.938 319.171C352.715 318.884 352.416 318.653 352.041 318.477C351.666 318.295 351.241 318.205 350.767 318.205C350.321 318.205 349.917 318.292 349.554 318.468C349.19 318.644 348.895 318.875 348.666 319.163C348.443 319.444 348.268 319.751 348.139 320.085C348.01 320.414 347.937 320.748 347.919 321.087ZM357.147 329.314V317.308H358.492V318.6C358.82 318.143 359.242 317.777 359.758 317.501C360.279 317.226 360.836 317.088 361.428 317.088C362.582 317.088 363.514 317.499 364.223 318.319C364.938 319.133 365.295 320.241 365.295 321.641C365.295 323.03 364.938 324.14 364.223 324.972C363.514 325.804 362.582 326.22 361.428 326.22C360.842 326.22 360.297 326.085 359.793 325.816C359.295 325.546 358.861 325.168 358.492 324.682V329.314H357.147ZM358.492 323.61C358.732 324.002 359.096 324.333 359.582 324.603C360.068 324.873 360.569 325.007 361.085 325.007C361.94 325.007 362.62 324.694 363.124 324.067C363.628 323.434 363.88 322.625 363.88 321.641C363.88 320.657 363.628 319.854 363.124 319.233C362.62 318.606 361.94 318.292 361.085 318.292C360.569 318.292 360.068 318.427 359.582 318.697C359.096 318.966 358.732 319.294 358.492 319.681V323.61ZM311.339 354V341.995H312.833V352.665H318.414V354H311.339ZM319.855 349.641C319.855 348.809 320.037 348.047 320.4 347.356C320.77 346.659 321.282 346.108 321.938 345.704C322.595 345.293 323.33 345.088 324.145 345.088C325 345.088 325.747 345.296 326.386 345.712C327.024 346.128 327.505 346.688 327.827 347.391C328.155 348.088 328.319 348.876 328.319 349.755V350.098H321.297C321.35 350.954 321.654 351.668 322.211 352.243C322.773 352.817 323.506 353.104 324.408 353.104C324.918 353.104 325.407 353.007 325.876 352.814C326.351 352.621 326.764 352.345 327.115 351.988L327.757 352.867C326.837 353.769 325.686 354.22 324.303 354.22C323.002 354.22 321.936 353.795 321.104 352.946C320.271 352.096 319.855 350.995 319.855 349.641ZM321.279 349.087H326.983C326.978 348.753 326.916 348.422 326.799 348.094C326.688 347.766 326.521 347.458 326.298 347.171C326.075 346.884 325.776 346.653 325.401 346.477C325.026 346.295 324.602 346.205 324.127 346.205C323.682 346.205 323.277 346.292 322.914 346.468C322.551 346.644 322.255 346.875 322.026 347.163C321.804 347.444 321.628 347.751 321.499 348.085C321.37 348.414 321.297 348.748 321.279 349.087ZM330.033 351.337C330.033 350.869 330.121 350.447 330.297 350.072C330.473 349.691 330.704 349.389 330.991 349.167C331.284 348.938 331.606 348.765 331.958 348.648C332.31 348.531 332.676 348.472 333.057 348.472C334.287 348.472 335.248 348.862 335.939 349.641V348.077C335.939 347.514 335.734 347.072 335.324 346.75C334.914 346.421 334.387 346.257 333.742 346.257C332.711 346.257 331.823 346.662 331.079 347.47L330.446 346.53C331.366 345.569 332.526 345.088 333.927 345.088C334.407 345.088 334.844 345.144 335.236 345.255C335.635 345.367 335.989 345.537 336.3 345.765C336.61 345.988 336.854 346.292 337.029 346.679C337.205 347.066 337.293 347.514 337.293 348.024V354H335.939V353.007C335.219 353.816 334.258 354.22 333.057 354.22C332.688 354.22 332.324 354.156 331.967 354.027C331.615 353.904 331.293 353.725 331 353.491C330.707 353.256 330.473 352.955 330.297 352.585C330.121 352.21 330.033 351.794 330.033 351.337ZM331.404 351.337C331.404 351.894 331.604 352.351 332.002 352.708C332.406 353.066 332.928 353.245 333.566 353.245C334.047 353.245 334.498 353.154 334.92 352.972C335.348 352.785 335.688 352.515 335.939 352.164V350.511C335.688 350.171 335.348 349.911 334.92 349.729C334.498 349.542 334.047 349.448 333.566 349.448C332.934 349.448 332.415 349.626 332.011 349.984C331.606 350.335 331.404 350.787 331.404 351.337ZM340.018 354V345.308H341.362V346.697C341.737 346.216 342.174 345.833 342.672 345.545C343.17 345.252 343.7 345.106 344.263 345.106V346.495C344.052 346.471 343.879 346.459 343.744 346.459C343.328 346.459 342.877 346.603 342.391 346.89C341.904 347.171 341.562 347.491 341.362 347.848V354H340.018ZM345.959 354V345.308H347.304V346.565C347.644 346.161 348.095 345.815 348.657 345.528C349.22 345.235 349.809 345.088 350.424 345.088C352.258 345.088 353.175 346.026 353.175 347.901V354H351.839V348.314C351.839 347.582 351.669 347.063 351.329 346.758C350.989 346.448 350.506 346.292 349.879 346.292C349.375 346.292 348.889 346.424 348.42 346.688C347.957 346.952 347.585 347.271 347.304 347.646V354H345.959ZM355.917 343.805C355.741 343.629 355.653 343.416 355.653 343.164C355.653 342.912 355.741 342.698 355.917 342.522C356.099 342.34 356.315 342.25 356.567 342.25C356.819 342.25 357.033 342.34 357.209 342.522C357.385 342.698 357.473 342.912 357.473 343.164C357.473 343.416 357.385 343.629 357.209 343.805C357.033 343.981 356.819 344.069 356.567 344.069C356.315 344.069 356.099 343.981 355.917 343.805ZM355.891 354V345.308H357.235V354H355.891ZM359.934 354V345.308H361.278V346.565C361.618 346.161 362.069 345.815 362.632 345.528C363.194 345.235 363.783 345.088 364.398 345.088C366.232 345.088 367.149 346.026 367.149 347.901V354H365.813V348.314C365.813 347.582 365.644 347.063 365.304 346.758C364.964 346.448 364.48 346.292 363.854 346.292C363.35 346.292 362.863 346.424 362.395 346.688C361.932 346.952 361.56 347.271 361.278 347.646V354H359.934ZM369.355 349.606C369.355 348.229 369.713 347.133 370.428 346.319C371.143 345.499 372.077 345.088 373.231 345.088C373.812 345.088 374.354 345.223 374.857 345.493C375.367 345.762 375.801 346.137 376.158 346.618V345.308H377.512V353.877C377.512 354.54 377.397 355.114 377.169 355.6C376.94 356.086 376.624 356.464 376.22 356.734C375.821 357.009 375.385 357.208 374.91 357.332C374.436 357.46 373.917 357.525 373.354 357.525C372.593 357.525 371.942 357.431 371.403 357.244C370.87 357.056 370.352 356.713 369.848 356.215L370.524 355.24C370.882 355.656 371.283 355.955 371.729 356.136C372.18 356.318 372.722 356.409 373.354 356.409C374.151 356.409 374.816 356.201 375.35 355.785C375.889 355.369 376.158 354.733 376.158 353.877V352.559C375.818 353.022 375.391 353.397 374.875 353.684C374.365 353.965 373.817 354.106 373.231 354.106C372.077 354.106 371.143 353.702 370.428 352.893C369.713 352.084 369.355 350.989 369.355 349.606ZM370.762 349.606C370.762 350.579 371.011 351.373 371.509 351.988C372.013 352.597 372.698 352.902 373.565 352.902C374.081 352.902 374.579 352.767 375.06 352.498C375.54 352.222 375.906 351.888 376.158 351.496V347.681C375.906 347.294 375.537 346.966 375.051 346.697C374.57 346.427 374.075 346.292 373.565 346.292C372.698 346.292 372.013 346.6 371.509 347.215C371.011 347.825 370.762 348.622 370.762 349.606Z" fill="url(#paint3_linear_1939_81761)"/>
<path d="M311.385 179V166.994H313.521L317.265 176.249L320.991 166.994H323.136V179H321.642V168.901L317.572 179H316.966L312.879 168.901V179H311.385ZM325.412 176.337C325.412 175.868 325.5 175.446 325.676 175.071C325.852 174.69 326.083 174.389 326.37 174.166C326.663 173.938 326.985 173.765 327.337 173.647C327.688 173.53 328.055 173.472 328.436 173.472C329.666 173.472 330.627 173.861 331.318 174.641V173.076C331.318 172.514 331.113 172.071 330.703 171.749C330.293 171.421 329.766 171.257 329.121 171.257C328.09 171.257 327.202 171.661 326.458 172.47L325.825 171.529C326.745 170.568 327.905 170.088 329.306 170.088C329.786 170.088 330.223 170.144 330.615 170.255C331.014 170.366 331.368 170.536 331.679 170.765C331.989 170.987 332.232 171.292 332.408 171.679C332.584 172.065 332.672 172.514 332.672 173.023V179H331.318V178.007C330.598 178.815 329.637 179.22 328.436 179.22C328.066 179.22 327.703 179.155 327.346 179.026C326.994 178.903 326.672 178.725 326.379 178.49C326.086 178.256 325.852 177.954 325.676 177.585C325.5 177.21 325.412 176.794 325.412 176.337ZM326.783 176.337C326.783 176.894 326.982 177.351 327.381 177.708C327.785 178.065 328.307 178.244 328.945 178.244C329.426 178.244 329.877 178.153 330.299 177.972C330.727 177.784 331.066 177.515 331.318 177.163V175.511C331.066 175.171 330.727 174.91 330.299 174.729C329.877 174.541 329.426 174.447 328.945 174.447C328.312 174.447 327.794 174.626 327.39 174.983C326.985 175.335 326.783 175.786 326.783 176.337ZM334.887 174.641C334.887 173.785 335.065 173.015 335.423 172.329C335.786 171.638 336.299 171.093 336.961 170.694C337.623 170.29 338.379 170.088 339.229 170.088C340.57 170.088 341.631 170.592 342.41 171.6L341.514 172.408C340.969 171.664 340.23 171.292 339.299 171.292C338.391 171.292 337.661 171.605 337.11 172.232C336.565 172.859 336.293 173.662 336.293 174.641C336.293 175.619 336.568 176.425 337.119 177.058C337.67 177.69 338.396 178.007 339.299 178.007C340.207 178.007 340.945 177.629 341.514 176.873L342.41 177.708C341.631 178.716 340.57 179.22 339.229 179.22C337.951 179.22 336.908 178.783 336.1 177.91C335.291 177.037 334.887 175.947 334.887 174.641ZM344.344 179V166.994H345.688V171.564C346.017 171.16 346.459 170.814 347.016 170.527C347.578 170.234 348.17 170.088 348.791 170.088C350.637 170.088 351.56 171.014 351.56 172.865V179H350.206V173.278C350.206 172.546 350.039 172.033 349.705 171.74C349.371 171.441 348.885 171.292 348.246 171.292C347.748 171.292 347.265 171.424 346.796 171.688C346.327 171.951 345.958 172.271 345.688 172.646V179H344.344ZM354.284 168.805C354.108 168.629 354.021 168.415 354.021 168.163C354.021 167.911 354.108 167.697 354.284 167.521C354.466 167.34 354.683 167.249 354.935 167.249C355.187 167.249 355.4 167.34 355.576 167.521C355.752 167.697 355.84 167.911 355.84 168.163C355.84 168.415 355.752 168.629 355.576 168.805C355.4 168.98 355.187 169.068 354.935 169.068C354.683 169.068 354.466 168.98 354.284 168.805ZM354.258 179V170.308H355.603V179H354.258ZM358.301 179V170.308H359.646V171.564C359.985 171.16 360.437 170.814 360.999 170.527C361.562 170.234 362.15 170.088 362.766 170.088C364.6 170.088 365.517 171.025 365.517 172.9V179H364.181V173.313C364.181 172.581 364.011 172.062 363.671 171.758C363.331 171.447 362.848 171.292 362.221 171.292C361.717 171.292 361.23 171.424 360.762 171.688C360.299 171.951 359.927 172.271 359.646 172.646V179H358.301ZM367.723 174.641C367.723 173.809 367.904 173.047 368.268 172.355C368.637 171.658 369.149 171.107 369.806 170.703C370.462 170.293 371.197 170.088 372.012 170.088C372.867 170.088 373.614 170.296 374.253 170.712C374.892 171.128 375.372 171.688 375.694 172.391C376.022 173.088 376.187 173.876 376.187 174.755V175.098H369.164C369.217 175.953 369.521 176.668 370.078 177.242C370.641 177.816 371.373 178.104 372.275 178.104C372.785 178.104 373.274 178.007 373.743 177.813C374.218 177.62 374.631 177.345 374.982 176.987L375.624 177.866C374.704 178.769 373.553 179.22 372.17 179.22C370.869 179.22 369.803 178.795 368.971 177.945C368.139 177.096 367.723 175.994 367.723 174.641ZM369.146 174.087H374.851C374.845 173.753 374.783 173.422 374.666 173.094C374.555 172.766 374.388 172.458 374.165 172.171C373.942 171.884 373.644 171.652 373.269 171.477C372.894 171.295 372.469 171.204 371.994 171.204C371.549 171.204 371.145 171.292 370.781 171.468C370.418 171.644 370.122 171.875 369.894 172.162C369.671 172.443 369.495 172.751 369.366 173.085C369.237 173.413 369.164 173.747 369.146 174.087ZM310.339 207V194.994H311.833V205.664H317.414V207H310.339ZM318.855 202.641C318.855 201.809 319.037 201.047 319.4 200.355C319.77 199.658 320.282 199.107 320.938 198.703C321.595 198.293 322.33 198.088 323.145 198.088C324 198.088 324.747 198.296 325.386 198.712C326.024 199.128 326.505 199.688 326.827 200.391C327.155 201.088 327.319 201.876 327.319 202.755V203.098H320.297C320.35 203.953 320.654 204.668 321.211 205.242C321.773 205.816 322.506 206.104 323.408 206.104C323.918 206.104 324.407 206.007 324.876 205.813C325.351 205.62 325.764 205.345 326.115 204.987L326.757 205.866C325.837 206.769 324.686 207.22 323.303 207.22C322.002 207.22 320.936 206.795 320.104 205.945C319.271 205.096 318.855 203.994 318.855 202.641ZM320.279 202.087H325.983C325.978 201.753 325.916 201.422 325.799 201.094C325.688 200.766 325.521 200.458 325.298 200.171C325.075 199.884 324.776 199.652 324.401 199.477C324.026 199.295 323.602 199.204 323.127 199.204C322.682 199.204 322.277 199.292 321.914 199.468C321.551 199.644 321.255 199.875 321.026 200.162C320.804 200.443 320.628 200.751 320.499 201.085C320.37 201.413 320.297 201.747 320.279 202.087ZM329.033 204.337C329.033 203.868 329.121 203.446 329.297 203.071C329.473 202.69 329.704 202.389 329.991 202.166C330.284 201.938 330.606 201.765 330.958 201.647C331.31 201.53 331.676 201.472 332.057 201.472C333.287 201.472 334.248 201.861 334.939 202.641V201.076C334.939 200.514 334.734 200.071 334.324 199.749C333.914 199.421 333.387 199.257 332.742 199.257C331.711 199.257 330.823 199.661 330.079 200.47L329.446 199.529C330.366 198.568 331.526 198.088 332.927 198.088C333.407 198.088 333.844 198.144 334.236 198.255C334.635 198.366 334.989 198.536 335.3 198.765C335.61 198.987 335.854 199.292 336.029 199.679C336.205 200.065 336.293 200.514 336.293 201.023V207H334.939V206.007C334.219 206.815 333.258 207.22 332.057 207.22C331.688 207.22 331.324 207.155 330.967 207.026C330.615 206.903 330.293 206.725 330 206.49C329.707 206.256 329.473 205.954 329.297 205.585C329.121 205.21 329.033 204.794 329.033 204.337ZM330.404 204.337C330.404 204.894 330.604 205.351 331.002 205.708C331.406 206.065 331.928 206.244 332.566 206.244C333.047 206.244 333.498 206.153 333.92 205.972C334.348 205.784 334.688 205.515 334.939 205.163V203.511C334.688 203.171 334.348 202.91 333.92 202.729C333.498 202.541 333.047 202.447 332.566 202.447C331.934 202.447 331.415 202.626 331.011 202.983C330.606 203.335 330.404 203.786 330.404 204.337ZM339.018 207V198.308H340.362V199.696C340.737 199.216 341.174 198.832 341.672 198.545C342.17 198.252 342.7 198.105 343.263 198.105V199.494C343.052 199.471 342.879 199.459 342.744 199.459C342.328 199.459 341.877 199.603 341.391 199.89C340.904 200.171 340.562 200.49 340.362 200.848V207H339.018ZM344.959 207V198.308H346.304V199.564C346.644 199.16 347.095 198.814 347.657 198.527C348.22 198.234 348.809 198.088 349.424 198.088C351.258 198.088 352.175 199.025 352.175 200.9V207H350.839V201.313C350.839 200.581 350.669 200.062 350.329 199.758C349.989 199.447 349.506 199.292 348.879 199.292C348.375 199.292 347.889 199.424 347.42 199.688C346.957 199.951 346.585 200.271 346.304 200.646V207H344.959ZM354.917 196.805C354.741 196.629 354.653 196.415 354.653 196.163C354.653 195.911 354.741 195.697 354.917 195.521C355.099 195.34 355.315 195.249 355.567 195.249C355.819 195.249 356.033 195.34 356.209 195.521C356.385 195.697 356.473 195.911 356.473 196.163C356.473 196.415 356.385 196.629 356.209 196.805C356.033 196.98 355.819 197.068 355.567 197.068C355.315 197.068 355.099 196.98 354.917 196.805ZM354.891 207V198.308H356.235V207H354.891ZM358.934 207V198.308H360.278V199.564C360.618 199.16 361.069 198.814 361.632 198.527C362.194 198.234 362.783 198.088 363.398 198.088C365.232 198.088 366.149 199.025 366.149 200.9V207H364.813V201.313C364.813 200.581 364.644 200.062 364.304 199.758C363.964 199.447 363.48 199.292 362.854 199.292C362.35 199.292 361.863 199.424 361.395 199.688C360.932 199.951 360.56 200.271 360.278 200.646V207H358.934ZM368.355 202.605C368.355 201.229 368.713 200.133 369.428 199.318C370.143 198.498 371.077 198.088 372.231 198.088C372.812 198.088 373.354 198.223 373.857 198.492C374.367 198.762 374.801 199.137 375.158 199.617V198.308H376.512V206.877C376.512 207.539 376.397 208.113 376.169 208.6C375.94 209.086 375.624 209.464 375.22 209.733C374.821 210.009 374.385 210.208 373.91 210.331C373.436 210.46 372.917 210.524 372.354 210.524C371.593 210.524 370.942 210.431 370.403 210.243C369.87 210.056 369.352 209.713 368.848 209.215L369.524 208.239C369.882 208.655 370.283 208.954 370.729 209.136C371.18 209.317 371.722 209.408 372.354 209.408C373.151 209.408 373.816 209.2 374.35 208.784C374.889 208.368 375.158 207.732 375.158 206.877V205.559C374.818 206.021 374.391 206.396 373.875 206.684C373.365 206.965 372.817 207.105 372.231 207.105C371.077 207.105 370.143 206.701 369.428 205.893C368.713 205.084 368.355 203.988 368.355 202.605ZM369.762 202.605C369.762 203.578 370.011 204.372 370.509 204.987C371.013 205.597 371.698 205.901 372.565 205.901C373.081 205.901 373.579 205.767 374.06 205.497C374.54 205.222 374.906 204.888 375.158 204.495V200.681C374.906 200.294 374.537 199.966 374.051 199.696C373.57 199.427 373.075 199.292 372.565 199.292C371.698 199.292 371.013 199.6 370.509 200.215C370.011 200.824 369.762 201.621 369.762 202.605Z" fill="black"/>
<path d="M312.755 67L317.598 54.9941H319.452L324.277 67H322.572L321.509 64.3193H315.532L314.469 67H312.755ZM315.98 63.001H321.078L318.521 56.5234L315.98 63.001ZM325.798 67V58.3076H327.143V59.6963C327.518 59.2158 327.954 58.832 328.452 58.5449C328.95 58.252 329.48 58.1055 330.043 58.1055V59.4941C329.832 59.4707 329.659 59.459 329.524 59.459C329.108 59.459 328.657 59.6025 328.171 59.8896C327.685 60.1709 327.342 60.4902 327.143 60.8477V67H325.798ZM330.562 59.4941V58.3076H332.003V55.9258H333.374V58.3076H335.141V59.4941H333.374V64.8906C333.374 65.2305 333.447 65.5029 333.594 65.708C333.74 65.9072 333.954 66.0068 334.235 66.0068C334.634 66.0068 334.941 65.8809 335.158 65.6289L335.554 66.6572C335.161 67.0322 334.628 67.2197 333.954 67.2197C333.315 67.2197 332.829 67.0439 332.495 66.6924C332.167 66.335 332.003 65.8311 332.003 65.1807V59.4941H330.562ZM337.057 56.8047C336.881 56.6289 336.793 56.415 336.793 56.1631C336.793 55.9111 336.881 55.6973 337.057 55.5215C337.238 55.3398 337.455 55.249 337.707 55.249C337.959 55.249 338.173 55.3398 338.349 55.5215C338.524 55.6973 338.612 55.9111 338.612 56.1631C338.612 56.415 338.524 56.6289 338.349 56.8047C338.173 56.9805 337.959 57.0684 337.707 57.0684C337.455 57.0684 337.238 56.9805 337.057 56.8047ZM337.03 67V58.3076H338.375V67H337.03ZM340.01 59.4941V58.3076H341.451V57.6396C341.451 56.7549 341.68 56.0635 342.137 55.5654C342.594 55.0674 343.203 54.8184 343.965 54.8184C344.521 54.8184 344.967 54.9121 345.301 55.0996L344.958 56.1279C344.718 55.9932 344.46 55.9258 344.185 55.9258C343.733 55.9258 343.388 56.0723 343.147 56.3652C342.913 56.6582 342.796 57.083 342.796 57.6396V58.3076H344.562V59.4941H342.796V67H341.451V59.4941H340.01ZM346.215 56.8047C346.039 56.6289 345.951 56.415 345.951 56.1631C345.951 55.9111 346.039 55.6973 346.215 55.5215C346.396 55.3398 346.613 55.249 346.865 55.249C347.117 55.249 347.328 55.3398 347.498 55.5215C347.674 55.6973 347.762 55.9111 347.762 56.1631C347.762 56.415 347.674 56.6289 347.498 56.8047C347.328 56.9805 347.117 57.0684 346.865 57.0684C346.613 57.0684 346.396 56.9805 346.215 56.8047ZM346.18 67V58.3076H347.533V67H346.18ZM349.722 62.6406C349.722 61.7852 349.9 61.0146 350.258 60.3291C350.621 59.6377 351.134 59.0928 351.796 58.6943C352.458 58.29 353.214 58.0879 354.063 58.0879C355.405 58.0879 356.466 58.5918 357.245 59.5996L356.349 60.4082C355.804 59.6641 355.065 59.292 354.134 59.292C353.226 59.292 352.496 59.6055 351.945 60.2324C351.4 60.8594 351.128 61.6621 351.128 62.6406C351.128 63.6191 351.403 64.4248 351.954 65.0576C352.505 65.6904 353.231 66.0068 354.134 66.0068C355.042 66.0068 355.78 65.6289 356.349 64.873L357.245 65.708C356.466 66.7158 355.405 67.2197 354.063 67.2197C352.786 67.2197 351.743 66.7832 350.935 65.9102C350.126 65.0371 349.722 63.9473 349.722 62.6406ZM359.188 56.8047C359.012 56.6289 358.924 56.415 358.924 56.1631C358.924 55.9111 359.012 55.6973 359.188 55.5215C359.369 55.3398 359.586 55.249 359.838 55.249C360.09 55.249 360.304 55.3398 360.479 55.5215C360.655 55.6973 360.743 55.9111 360.743 56.1631C360.743 56.415 360.655 56.6289 360.479 56.8047C360.304 56.9805 360.09 57.0684 359.838 57.0684C359.586 57.0684 359.369 56.9805 359.188 56.8047ZM359.161 67V58.3076H360.506V67H359.161ZM362.729 64.3369C362.729 63.8682 362.817 63.4463 362.993 63.0713C363.169 62.6904 363.4 62.3887 363.688 62.166C363.98 61.9375 364.303 61.7646 364.654 61.6475C365.006 61.5303 365.372 61.4717 365.753 61.4717C366.983 61.4717 367.944 61.8613 368.636 62.6406V61.0762C368.636 60.5137 368.431 60.0713 368.021 59.749C367.61 59.4209 367.083 59.2568 366.438 59.2568C365.407 59.2568 364.52 59.6611 363.775 60.4697L363.143 59.5293C364.062 58.5684 365.223 58.0879 366.623 58.0879C367.104 58.0879 367.54 58.1436 367.933 58.2549C368.331 58.3662 368.686 58.5361 368.996 58.7646C369.307 58.9873 369.55 59.292 369.726 59.6787C369.901 60.0654 369.989 60.5137 369.989 61.0234V67H368.636V66.0068C367.915 66.8154 366.954 67.2197 365.753 67.2197C365.384 67.2197 365.021 67.1553 364.663 67.0264C364.312 66.9033 363.989 66.7246 363.696 66.4902C363.403 66.2559 363.169 65.9541 362.993 65.585C362.817 65.21 362.729 64.7939 362.729 64.3369ZM364.101 64.3369C364.101 64.8936 364.3 65.3506 364.698 65.708C365.103 66.0654 365.624 66.2441 366.263 66.2441C366.743 66.2441 367.194 66.1533 367.616 65.9717C368.044 65.7842 368.384 65.5146 368.636 65.1631V63.5107C368.384 63.1709 368.044 62.9102 367.616 62.7285C367.194 62.541 366.743 62.4473 366.263 62.4473C365.63 62.4473 365.111 62.626 364.707 62.9834C364.303 63.335 364.101 63.7861 364.101 64.3369ZM372.714 67V54.9941H374.059V67H372.714ZM299.756 95V82.9941H301.25V95H299.756ZM304.01 95V86.3076H305.354V87.5645C305.694 87.1602 306.146 86.8145 306.708 86.5273C307.271 86.2344 307.859 86.0879 308.475 86.0879C310.309 86.0879 311.226 87.0254 311.226 88.9004V95H309.89V89.3135C309.89 88.5811 309.72 88.0625 309.38 87.7578C309.04 87.4473 308.557 87.292 307.93 87.292C307.426 87.292 306.939 87.4238 306.471 87.6875C306.008 87.9512 305.636 88.2705 305.354 88.6455V95H304.01ZM312.764 87.4941V86.3076H314.205V83.9258H315.576V86.3076H317.343V87.4941H315.576V92.8906C315.576 93.2305 315.649 93.5029 315.796 93.708C315.942 93.9072 316.156 94.0068 316.438 94.0068C316.836 94.0068 317.144 93.8809 317.36 93.6289L317.756 94.6572C317.363 95.0322 316.83 95.2197 316.156 95.2197C315.518 95.2197 315.031 95.0439 314.697 94.6924C314.369 94.335 314.205 93.8311 314.205 93.1807V87.4941H312.764ZM318.723 90.6406C318.723 89.8086 318.904 89.0469 319.268 88.3555C319.637 87.6582 320.149 87.1074 320.806 86.7031C321.462 86.293 322.197 86.0879 323.012 86.0879C323.867 86.0879 324.614 86.2959 325.253 86.7119C325.892 87.1279 326.372 87.6875 326.694 88.3906C327.022 89.0879 327.187 89.876 327.187 90.7549V91.0977H320.164C320.217 91.9531 320.521 92.668 321.078 93.2422C321.641 93.8164 322.373 94.1035 323.275 94.1035C323.785 94.1035 324.274 94.0068 324.743 93.8135C325.218 93.6201 325.631 93.3447 325.982 92.9873L326.624 93.8662C325.704 94.7686 324.553 95.2197 323.17 95.2197C321.869 95.2197 320.803 94.7949 319.971 93.9453C319.139 93.0957 318.723 91.9941 318.723 90.6406ZM320.146 90.0869H325.851C325.845 89.7529 325.783 89.4219 325.666 89.0938C325.555 88.7656 325.388 88.458 325.165 88.1709C324.942 87.8838 324.644 87.6523 324.269 87.4766C323.894 87.2949 323.469 87.2041 322.994 87.2041C322.549 87.2041 322.145 87.292 321.781 87.4678C321.418 87.6436 321.122 87.875 320.894 88.1621C320.671 88.4434 320.495 88.751 320.366 89.085C320.237 89.4131 320.164 89.7471 320.146 90.0869ZM329.375 95V82.9941H330.72V95H329.375ZM333.418 95V82.9941H334.763V95H333.418ZM337.487 84.8047C337.312 84.6289 337.224 84.415 337.224 84.1631C337.224 83.9111 337.312 83.6973 337.487 83.5215C337.669 83.3398 337.886 83.249 338.138 83.249C338.39 83.249 338.604 83.3398 338.779 83.5215C338.955 83.6973 339.043 83.9111 339.043 84.1631C339.043 84.415 338.955 84.6289 338.779 84.8047C338.604 84.9805 338.39 85.0684 338.138 85.0684C337.886 85.0684 337.669 84.9805 337.487 84.8047ZM337.461 95V86.3076H338.806V95H337.461ZM340.994 90.6055C340.994 89.2285 341.352 88.1328 342.066 87.3184C342.781 86.498 343.716 86.0879 344.87 86.0879C345.45 86.0879 345.992 86.2227 346.496 86.4922C347.006 86.7617 347.439 87.1367 347.797 87.6172V86.3076H349.15V94.877C349.15 95.5391 349.036 96.1133 348.808 96.5996C348.579 97.0859 348.263 97.4639 347.858 97.7334C347.46 98.0088 347.023 98.208 346.549 98.3311C346.074 98.46 345.556 98.5244 344.993 98.5244C344.231 98.5244 343.581 98.4307 343.042 98.2432C342.509 98.0557 341.99 97.7129 341.486 97.2148L342.163 96.2393C342.521 96.6553 342.922 96.9541 343.367 97.1357C343.818 97.3174 344.36 97.4082 344.993 97.4082C345.79 97.4082 346.455 97.2002 346.988 96.7842C347.527 96.3682 347.797 95.7324 347.797 94.877V93.5586C347.457 94.0215 347.029 94.3965 346.514 94.6836C346.004 94.9648 345.456 95.1055 344.87 95.1055C343.716 95.1055 342.781 94.7012 342.066 93.8926C341.352 93.084 340.994 91.9883 340.994 90.6055ZM342.4 90.6055C342.4 91.5781 342.649 92.3721 343.147 92.9873C343.651 93.5967 344.337 93.9014 345.204 93.9014C345.72 93.9014 346.218 93.7666 346.698 93.4971C347.179 93.2217 347.545 92.8877 347.797 92.4951V88.6807C347.545 88.2939 347.176 87.9658 346.689 87.6963C346.209 87.4268 345.714 87.292 345.204 87.292C344.337 87.292 343.651 87.5996 343.147 88.2148C342.649 88.8242 342.4 89.6211 342.4 90.6055ZM351.348 90.6406C351.348 89.8086 351.529 89.0469 351.893 88.3555C352.262 87.6582 352.774 87.1074 353.431 86.7031C354.087 86.293 354.822 86.0879 355.637 86.0879C356.492 86.0879 357.239 86.2959 357.878 86.7119C358.517 87.1279 358.997 87.6875 359.319 88.3906C359.647 89.0879 359.812 89.876 359.812 90.7549V91.0977H352.789C352.842 91.9531 353.146 92.668 353.703 93.2422C354.266 93.8164 354.998 94.1035 355.9 94.1035C356.41 94.1035 356.899 94.0068 357.368 93.8135C357.843 93.6201 358.256 93.3447 358.607 92.9873L359.249 93.8662C358.329 94.7686 357.178 95.2197 355.795 95.2197C354.494 95.2197 353.428 94.7949 352.596 93.9453C351.764 93.0957 351.348 91.9941 351.348 90.6406ZM352.771 90.0869H358.476C358.47 89.7529 358.408 89.4219 358.291 89.0938C358.18 88.7656 358.013 88.458 357.79 88.1709C357.567 87.8838 357.269 87.6523 356.894 87.4766C356.519 87.2949 356.094 87.2041 355.619 87.2041C355.174 87.2041 354.77 87.292 354.406 87.4678C354.043 87.6436 353.747 87.875 353.519 88.1621C353.296 88.4434 353.12 88.751 352.991 89.085C352.862 89.4131 352.789 89.7471 352.771 90.0869ZM362 95V86.3076H363.345V87.5645C363.685 87.1602 364.136 86.8145 364.698 86.5273C365.261 86.2344 365.85 86.0879 366.465 86.0879C368.299 86.0879 369.216 87.0254 369.216 88.9004V95H367.88V89.3135C367.88 88.5811 367.71 88.0625 367.37 87.7578C367.03 87.4473 366.547 87.292 365.92 87.292C365.416 87.292 364.93 87.4238 364.461 87.6875C363.998 87.9512 363.626 88.2705 363.345 88.6455V95H362ZM371.422 90.6406C371.422 89.7852 371.601 89.0146 371.958 88.3291C372.321 87.6377 372.834 87.0928 373.496 86.6943C374.158 86.29 374.914 86.0879 375.764 86.0879C377.105 86.0879 378.166 86.5918 378.945 87.5996L378.049 88.4082C377.504 87.6641 376.766 87.292 375.834 87.292C374.926 87.292 374.196 87.6055 373.646 88.2324C373.101 88.8594 372.828 89.6621 372.828 90.6406C372.828 91.6191 373.104 92.4248 373.654 93.0576C374.205 93.6904 374.932 94.0068 375.834 94.0068C376.742 94.0068 377.48 93.6289 378.049 92.873L378.945 93.708C378.166 94.7158 377.105 95.2197 375.764 95.2197C374.486 95.2197 373.443 94.7832 372.635 93.9102C371.826 93.0371 371.422 91.9473 371.422 90.6406ZM380.352 90.6406C380.352 89.8086 380.533 89.0469 380.896 88.3555C381.266 87.6582 381.778 87.1074 382.435 86.7031C383.091 86.293 383.826 86.0879 384.641 86.0879C385.496 86.0879 386.243 86.2959 386.882 86.7119C387.521 87.1279 388.001 87.6875 388.323 88.3906C388.651 89.0879 388.815 89.876 388.815 90.7549V91.0977H381.793C381.846 91.9531 382.15 92.668 382.707 93.2422C383.27 93.8164 384.002 94.1035 384.904 94.1035C385.414 94.1035 385.903 94.0068 386.372 93.8135C386.847 93.6201 387.26 93.3447 387.611 92.9873L388.253 93.8662C387.333 94.7686 386.182 95.2197 384.799 95.2197C383.498 95.2197 382.432 94.7949 381.6 93.9453C380.768 93.0957 380.352 91.9941 380.352 90.6406ZM381.775 90.0869H387.479C387.474 89.7529 387.412 89.4219 387.295 89.0938C387.184 88.7656 387.017 88.458 386.794 88.1709C386.571 87.8838 386.272 87.6523 385.897 87.4766C385.522 87.2949 385.098 87.2041 384.623 87.2041C384.178 87.2041 383.773 87.292 383.41 87.4678C383.047 87.6436 382.751 87.875 382.522 88.1621C382.3 88.4434 382.124 88.751 381.995 89.085C381.866 89.4131 381.793 89.7471 381.775 90.0869Z" fill="black"/>
<line x1="665" y1="75.5" x2="495" y2="75.5" stroke="url(#paint4_linear_1939_81761)"/>
<line x1="665" y1="334.5" x2="426" y2="334.5" stroke="url(#paint5_linear_1939_81761)"/>
<line x1="-8.74228e-08" y1="180.5" x2="225" y2="180.5" stroke="url(#paint6_linear_1939_81761)"/>
<defs>
<filter id="filter0_d_1939_81761" x="124" y="0" width="440" height="440" filterUnits="userSpaceOnUse" color-interpolation-filters="sRGB">
<feFlood flood-opacity="0" result="BackgroundImageFix"/>
<feColorMatrix in="SourceAlpha" type="matrix" values="0 0 0 0 0 0 0 0 0 0 0 0 0 0 0 0 0 0 127 0" result="hardAlpha"/>
<feOffset dy="8"/>
<feGaussianBlur stdDeviation="8"/>
<feComposite in2="hardAlpha" operator="out"/>
<feColorMatrix type="matrix" values="0 0 0 0 0.608247 0 0 0 0 0.608247 0 0 0 0 0.608247 0 0 0 0.16 0"/>
<feBlend mode="normal" in2="BackgroundImageFix" result="effect1_dropShadow_1939_81761"/>
<feBlend mode="normal" in="SourceGraphic" in2="effect1_dropShadow_1939_81761" result="shape"/>
</filter>
<filter id="filter1_d_1939_81761" x="180" y="111" width="328" height="329" filterUnits="userSpaceOnUse" color-interpolation-filters="sRGB">
<feFlood flood-opacity="0" result="BackgroundImageFix"/>
<feColorMatrix in="SourceAlpha" type="matrix" values="0 0 0 0 0 0 0 0 0 0 0 0 0 0 0 0 0 0 127 0" result="hardAlpha"/>
<feOffset dy="8"/>
<feGaussianBlur stdDeviation="8"/>
<feComposite in2="hardAlpha" operator="out"/>
<feColorMatrix type="matrix" values="0 0 0 0 0.608247 0 0 0 0 0.608247 0 0 0 0 0.608247 0 0 0 0.16 0"/>
<feBlend mode="normal" in2="BackgroundImageFix" result="effect1_dropShadow_1939_81761"/>
<feBlend mode="normal" in="SourceGraphic" in2="effect1_dropShadow_1939_81761" result="shape"/>
</filter>
<filter id="filter2_f_1939_81761" x="230.335" y="200.113" width="275.776" height="275.775" filterUnits="userSpaceOnUse" color-interpolation-filters="sRGB">
<feFlood flood-opacity="0" result="BackgroundImageFix"/>
<feBlend mode="normal" in="SourceGraphic" in2="BackgroundImageFix" result="shape"/>
<feGaussianBlur stdDeviation="40" result="effect1_foregroundBlur_1939_81761"/>
</filter>
<filter id="filter3_f_1939_81761" x="183" y="199" width="276" height="278" filterUnits="userSpaceOnUse" color-interpolation-filters="sRGB">
<feFlood flood-opacity="0" result="BackgroundImageFix"/>
<feBlend mode="normal" in="SourceGraphic" in2="BackgroundImageFix" result="shape"/>
<feGaussianBlur stdDeviation="40" result="effect1_foregroundBlur_1939_81761"/>
</filter>
<filter id="filter4_d_1939_81761" x="254" y="248" width="181" height="180" filterUnits="userSpaceOnUse" color-interpolation-filters="sRGB">
<feFlood flood-opacity="0" result="BackgroundImageFix"/>
<feColorMatrix in="SourceAlpha" type="matrix" values="0 0 0 0 0 0 0 0 0 0 0 0 0 0 0 0 0 0 127 0" result="hardAlpha"/>
<feOffset dy="4"/>
<feGaussianBlur stdDeviation="4"/>
<feComposite in2="hardAlpha" operator="out"/>
<feColorMatrix type="matrix" values="0 0 0 0 0.686275 0 0 0 0 0.0901961 0 0 0 0 0.623529 0 0 0 0.16 0"/>
<feBlend mode="normal" in2="BackgroundImageFix" result="effect1_dropShadow_1939_81761"/>
<feBlend mode="normal" in="SourceGraphic" in2="effect1_dropShadow_1939_81761" result="shape"/>
</filter>
<radialGradient id="paint0_radial_1939_81761" cx="0" cy="0" r="1" gradientUnits="userSpaceOnUse" gradientTransform="translate(2747.82 397.378) rotate(127.341) scale(125.736 86.3442)">
<stop stop-color="#EF39FF"/>
<stop offset="1" stop-color="#AF179F"/>
</radialGradient>
<radialGradient id="paint1_radial_1939_81761" cx="0" cy="0" r="1" gradientUnits="userSpaceOnUse" gradientTransform="translate(321.088 337.911) rotate(90) scale(59.0893 58.0877)">
<stop stop-color="#C11717"/>
<stop offset="1" stop-color="#DC3855"/>
</radialGradient>
<linearGradient id="paint2_linear_1939_81761" x1="426" y1="334" x2="263.144" y2="338.851" gradientUnits="userSpaceOnUse">
<stop offset="0.01269" stop-color="#A028BA"/>
<stop offset="1" stop-color="#ED4136"/>
</linearGradient>
<linearGradient id="paint3_linear_1939_81761" x1="376.73" y1="343.518" x2="312.463" y2="350.867" gradientUnits="userSpaceOnUse">
<stop offset="0.00139073" stop-color="#A028BA"/>
<stop offset="1" stop-color="#ED4136"/>
</linearGradient>
<linearGradient id="paint4_linear_1939_81761" x1="629" y1="75" x2="665" y2="75" gradientUnits="userSpaceOnUse">
<stop stop-color="#E6E6E6"/>
<stop offset="1" stop-color="#E6E6E6" stop-opacity="0"/>
</linearGradient>
<linearGradient id="paint5_linear_1939_81761" x1="433.864" y1="333.302" x2="434.52" y2="321.58" gradientUnits="userSpaceOnUse">
<stop stop-color="#A028BA"/>
<stop offset="0.75272" stop-color="#ED4136"/>
<stop offset="1" stop-color="#ED4136" stop-opacity="0"/>
</linearGradient>
<linearGradient id="paint6_linear_1939_81761" x1="47.6471" y1="181" x2="0" y2="181" gradientUnits="userSpaceOnUse">
<stop stop-color="#E6E6E6"/>
<stop offset="1" stop-color="#E6E6E6" stop-opacity="0"/>
</linearGradient>
</defs>
</svg>
